<svg xmlns="http://www.w3.org/2000/svg" viewBox="0 0 64 64"><path fill="#00bebd" d="M62 11v39H2V11a3 3 0 0 1 3-3h54a3 3 0 0 1 3 3Z"/><path fill="#50d9d7" d="M1 50h62a1 1 0 0 1 1 1v2a3 3 0 0 1-3 3H3a3 3 0 0 1-3-3v-2a1 1 0 0 1 1-1Z"/><path fill="#fff" d="M60 11v37H4V11a1 1 0 0 1 1-1h54a1 1 0 0 1 1 1Z"/><path fill="#f3f3f3" d="M39 52H25a2 2 0 0 1-2-2c0-.1-.84 0 18 0a2 2 0 0 1-2 2Z"/><path fill="#50d9d7" d="M5 10h54a1 1 0 0 1 1 1v3H4v-3a1 1 0 0 1 1-1Z"/><path fill="#93e6e5" d="M18 10h17a3 3 0 0 1 3 3v1H18v-4Z"/><path fill="#fff" d="M5 10h14a3 3 0 0 1 3 3v2H4v-4a1 1 0 0 1 1-1Z"/><path fill="#f3f3f3" d="M4 21h56v24H4z"/><path fill="#00bebd" d="M27 33v12H13V33l5-5h4l5 5z"/><path fill="#50d9d7" d="M17 45v-3a3 3 0 0 1 6 0v3"/><path fill="#ffac00" d="m30 34-2 2-8-8-8 8-2-2 10-10 10 10z"/><path fill="#ffac00" d="M24 27h3v5h-3z"/><path fill="#d9d9d9" d="M34 27h20v2H34zM34 31h20v2H34zM34 35h14v2H34z"/><path fill="#50d9d7" d="M35 43a1 1 0 0 1-.71-1.71l.3-.29-.3-.29a1 1 0 0 1 1.42-1.42l1 1a1 1 0 0 1 0 1.42C35.65 42.77 35.52 43 35 43ZM7 17h8v2H7zM17 17h8v2h-8zM27 17h8v2h-8zM37 17h8v2h-8z"/><path fill="#ffac00" d="M56 19h-4a1 1 0 0 1 0-2h4a1 1 0 0 1 0 2Z"/></svg>