<svg xmlns="http://www.w3.org/2000/svg" enable-background="new 0 0 800 600" viewBox="0 0 800 600"><linearGradient id="a" x1="447.093" x2="386.773" y1="-7.936" y2="575.159" gradientUnits="userSpaceOnUse"><stop offset="0" stop-color="#70b"/><stop offset="1" stop-color="#00008b"/><stop offset="1"/></linearGradient><path fill="url(#a)" d="M139.87 566.14S15.11 531.77 20.01 428.98c5.09-106.76 62.45-151.55 62.45-151.55s-16.29-58.41 9.72-111.5C121.47 106.15 200.35 43.41 335.35 31c177.13-16.28 224.78 23 277.12 87.4 60.47 74.4 15.54 207.79 15.54 207.79s81.24-6.77 127.48 59.85c68.65 98.89-25.74 175.38-25.74 175.38"/><defs><filter id="b" width="73.55" height="73.55" x="455.68" y="75.67" filterUnits="userSpaceOnUse"><feFlood flood-color="#fff" flood-opacity="1" result="back"/><feBlend in="SourceGraphic" in2="back"/></filter></defs><mask id="c" width="73.55" height="73.55" x="455.68" y="75.67" maskUnits="userSpaceOnUse"><g filter="url(#b)"><linearGradient id="d" x1="270.276" x2="331.416" y1="278.282" y2="319.173" gradientTransform="scale(-1 1) rotate(44.854 128.14 -754.315)" gradientUnits="userSpaceOnUse"><stop offset="0" stop-color="#4d4d4d"/><stop offset=".293" stop-color="#898989"/><stop offset=".628" stop-color="#c8c8c8"/><stop offset=".873" stop-color="#f0f0f0"/><stop offset="1" stop-color="#fff"/></linearGradient><path fill="url(#d)" d="M466.38 138.38c14.33 14.4 37.61 14.46 52.01.13 14.4-14.32 14.46-37.61.13-52-14.33-14.4-37.61-14.46-52.01-.13-14.39 14.32-14.45 37.6-.13 52z" mask="url(#c)"/></g></mask><linearGradient id="e" x1="270.276" x2="331.416" y1="278.282" y2="319.173" gradientTransform="scale(-1 1) rotate(44.854 128.14 -754.315)" gradientUnits="userSpaceOnUse"><stop offset="0" stop-color="#88cfda"/><stop offset=".008" stop-color="#89cfd9"/><stop offset=".478" stop-color="#c8d9bb"/><stop offset=".822" stop-color="#f0dfa7"/><stop offset="1" stop-color="#ffe1a0"/></linearGradient><path fill="url(#e)" d="M466.38 138.38c14.33 14.4 37.61 14.46 52.01.13 14.4-14.32 14.46-37.61.13-52-14.33-14.4-37.61-14.46-52.01-.13-14.39 14.32-14.45 37.6-.13 52z"/><linearGradient id="f" x1="367.024" x2="342.081" y1="485.337" y2="514.288" gradientUnits="userSpaceOnUse"><stop offset="0" stop-color="#270036"/><stop offset=".594" stop-color="#4f008b"/><stop offset="1" stop-color="#4c24b1"/></linearGradient><path fill="url(#f)" d="M348.64 481.1s-4.28 12.24-7.04 14.01c-2.75 1.77-16.37 8.54-16.98 11.11-.61 2.58-.61 5.48-.61 5.48v4.19s10.09 2.9 17.74 1.77c7.65-1.13 11.17-2.58 14.84-6.28s6.12-5.15 6.12-5.15l.61 3.06 12.69-5.8-.92-8.54-.92-13.37c.01 0-6.56 4.51-25.53-.48z"/><path d="M338.24 514.75c-4.59.32-10.96-1.47-14.22-2.57v3.7s10.09 2.9 17.74 1.77c7.65-1.13 11.17-2.58 14.84-6.28s6.12-5.15 6.12-5.15l.61 3.06 12.69-5.8-.67-6.26c-5.4 2.75-15.45 8.1-19.82 11.9-6.13 5.31-11.74 5.24-17.29 5.63z"/><linearGradient id="g" x1="432.507" x2="453.887" y1="487.109" y2="508.934" gradientUnits="userSpaceOnUse"><stop offset="0" stop-color="#270036"/><stop offset=".594" stop-color="#4f008b"/><stop offset="1" stop-color="#4c24b1"/></linearGradient><path fill="url(#g)" d="M451.27 481.1s4.28 12.24 7.04 14.01c2.75 1.77 16.37 8.54 16.98 11.11.61 2.58.61 5.48.61 5.48v4.19s-10.09 2.9-17.74 1.77c-7.65-1.13-11.17-2.58-14.84-6.28s-6.12-5.15-6.12-5.15l-.61 3.06-12.7-5.8.92-8.54.92-13.37s6.57 4.51 25.54-.48z"/><path d="M461.67 514.75c4.59.32 10.96-1.47 14.22-2.57v3.7s-10.09 2.9-17.74 1.77c-7.65-1.13-11.17-2.58-14.84-6.28s-6.12-5.15-6.12-5.15l-.61 3.06-12.7-5.8.67-6.26c5.4 2.75 15.45 8.1 19.82 11.9 6.14 5.31 11.75 5.24 17.3 5.63zM378.87 116.75l-2.86-9.48s-4.59-11.78-5.35-16.06c-.77-4.28-3.98-20.04.61-29.37 3.02-6.14 12.24-7.95 19.42-8.11 6.58-.14 15.28 2.4 17.13 13.31 1.53 9.02 1.99 18.97 1.99 23.25 0 4.28-3.52 16.37-3.52 16.37l-3.23 10.38-11.87 12.67-12.32-12.96z"/><path fill="#fff" d="M370.58 70.35c1.67-.67 1.34-11.36 16.7-9.35 15.37 2 20.71 9.02 23.72 3.67 3.01-5.35 3.34-6.01 3.34-6.01s-3.67-5.68-6.68-7.68c-3.98-2.65-20.38-8.69-32.74-2.34-12.36 6.35-10.36 18.04-10.36 18.04"/><linearGradient id="h" x1="391.196" x2="391.196" y1="68.351" y2="272.829" gradientUnits="userSpaceOnUse"><stop offset="0" stop-color="#7633ff"/><stop offset=".159" stop-color="#7137ff"/><stop offset=".353" stop-color="#6243ff"/><stop offset=".568" stop-color="#4957ff"/><stop offset=".794" stop-color="#2672ff"/><stop offset="1" stop-color="#0090ff"/></linearGradient><path fill="url(#h)" d="M482.17 128.38c-1.22-4.28-49.71-44.05-49.71-44.05s-6.58 5.61-8.41 8.87c-1.83 3.26-4.89 11.17-4.89 11.17l27.93 19.1s-26.91 5.11-29.15 4.5c-2.24-.61-6.53-3.47-6.53-3.47l-8.36-7.75-5.71 9.38-6.13 3.58-6.13-3.58-6.21-9.18-7.86 7.55s-4.28 2.85-6.53 3.47c-2.24.61-27.29-4.17-27.29-4.17l26.07-19.44s-3.06-7.9-4.89-11.17c-1.84-3.26-8.41-8.87-8.41-8.87s-48.49 39.77-49.71 44.05c-1.22 4.28-.92 10.71 1.84 13.15 2.75 2.45 42.83 20.29 42.83 20.29s7.18 65.2 5.51 67.71c-3.26 4.89-2.14 8.05-2.14 8.05s18.41 5.05 40 6.03v.13c.99 0 1.97-.01 2.94-.03.97.02 1.95.03 2.94.03v-.13c21.59-.98 40-6.03 40-6.03s1.12-3.16-2.14-8.05c-1.67-2.51 5.51-67.71 5.51-67.71s40.07-17.84 42.83-20.29c2.71-2.44 3.02-8.86 1.8-13.14z"/><linearGradient id="i" x1="354.755" x2="354.755" y1="175.248" y2="247.403" gradientUnits="userSpaceOnUse"><stop offset="0" stop-color="#009aff"/><stop offset="1" stop-color="#fff"/></linearGradient><path fill="url(#i)" d="M357.89 231.37c-6.37-17.81-13.7-78.17-13.7-78.17l-1.32 7.72 2.02.9s7.18 65.2 5.51 67.71c-3.26 4.89-2.14 8.05-2.14 8.05s7.43 2.04 18.38 3.78c0 0-7.42-6.26-8.75-9.99z"/><linearGradient id="j" x1="440.13" x2="440.13" y1="102.015" y2="132.089" gradientUnits="userSpaceOnUse"><stop offset="0" stop-color="#009aff"/><stop offset="1" stop-color="#fff"/></linearGradient><path fill="url(#j)" d="m419.15 104.36 31.94 21.11 10.02 2.34"/><linearGradient id="k" x1="342.694" x2="342.694" y1="101.981" y2="132.484" gradientUnits="userSpaceOnUse"><stop offset="0" stop-color="#009aff"/><stop offset="1" stop-color="#fff"/></linearGradient><path fill="url(#k)" d="m363.24 104.36-30.41 21.78-10.69 2.01"/><linearGradient id="l" x1="433.35" x2="484.127" y1="161.12" y2="136.066" gradientUnits="userSpaceOnUse"><stop offset="0" stop-color="#009aff"/><stop offset="1" stop-color="#fff"/></linearGradient><path fill="url(#l)" d="M482.64 136.35c-14 9.34-44.58 18.52-44.58 18.52l-.56 6.95s40.07-17.84 42.83-20.29c1.24-1.1 1.98-3.02 2.31-5.18z"/><linearGradient id="m" x1="347.779" x2="301.624" y1="158.856" y2="139.703" gradientUnits="userSpaceOnUse"><stop offset="0" stop-color="#009aff"/><stop offset="1" stop-color="#fff"/></linearGradient><path fill="url(#m)" d="M344.19 153.2s-33.64-11.38-44.09-15.19c.41 1.46 1.05 2.71 1.96 3.52 2.75 2.45 42.83 20.29 42.83 20.29l-.7-8.62z"/><path fill="#1a0c4d" d="M374.76 102.93s-3.02.83-3.79-.4c-.76-1.22-5.51-9.48-4.44-11.62 1.07-2.14 3.82-2.14 3.82-2.14s3.34 12.32 4.41 14.16z"/><path fill="#fff" d="M353.38 87.23c-.45-.19 3.67-9.94 5.05-11.01 1.38-1.07 24.32-5.97 25.7-5.2 1.38.77.76 3.06.76 3.06s-9.33 16.06-7.34 16.06c1.99 0 4.89-.61 6.42-1.38 1.53-.76 4.28-2.45 5.96-1.84 1.68.61 1.53 1.53 0 3.06s-8.26 5.51-11.47 6.58c-3.21 1.07-7.34 3.06-10.25 3.52-2.91.46-5.96.61-5.96.61s-7.03-12.69-8.87-13.46z"/><linearGradient id="n" x1="351.445" x2="432.608" y1="247.374" y2="247.374" gradientUnits="userSpaceOnUse"><stop offset="0" stop-color="#270036"/><stop offset=".594" stop-color="#4f008b"/><stop offset="1" stop-color="#4c24b1"/></linearGradient><path fill="url(#n)" d="m351.45 239.52.82 11.42s13.46 5.91 37.73 5.91c24.27 0 42.62-5.91 42.62-5.91l-.2-13.05c-.02 0-33.05 11.42-80.97 1.63z"/><radialGradient id="o" cx="393.25" cy="250.127" r="7.888" gradientUnits="userSpaceOnUse"><stop offset="0" stop-color="#a6ffff"/><stop offset=".199" stop-color="#a4fdff"/><stop offset=".313" stop-color="#9ff4ff"/><stop offset=".405" stop-color="#95e6ff"/><stop offset=".485" stop-color="#87d3ff"/><stop offset=".559" stop-color="#76b9ff"/><stop offset=".625" stop-color="#609aff"/><stop offset=".652" stop-color="#568bff"/></radialGradient><path fill="url(#o)" d="M402.22 255.53c0 .68-.55 1.22-1.22 1.22h-15.5c-.68 0-1.22-.55-1.22-1.22v-10.81c0-.68.55-1.22 1.22-1.22H401c.68 0 1.22.55 1.22 1.22v10.81z"/><path d="M352.26 250.94s-3.69 144.91-4.94 166.96c-.02.35-.67 63.44-.67 63.44s13.68 4.05 22.33 2.58c5.66-.97 6.12-1.93 6.12-1.93l15.3-169.63 4.59-.64L423.74 482s7.65 3.06 17.13 2.25c3.53-.3 10.86-3.06 10.86-3.06l-19.12-230.24c0-.01-39.87 12.13-80.35-.01z"/><path fill="#fff" d="m370.99 124.5-5.92 3.15 12.78-1.52 13.35 3.58-12.1-12.84zM391.38 129.48l11.66-4.16 15.15 2.91-6.77-3.93-8.38-7.55z"/><path fill="#1a0c4d" d="M407.83 100.54c-.18.42 3.06.92 3.82-1.84.76-2.75 2.45-8.11 1.99-10.09-.46-1.99-3.82-1.38-3.82-1.38s-.77 10.4-1.99 13.31z"/><path fill="#fff" d="M429.04 87.23c.45-.19-3.67-9.94-5.05-11.01-1.38-1.07-24.32-5.97-25.7-5.2-1.38.77-.76 3.06-.76 3.06s9.33 16.06 7.34 16.06c-1.99 0-4.89-.61-6.42-1.38-1.53-.76-4.28-2.45-5.97-1.84-1.68.61-1.53 1.53 0 3.06s8.26 5.51 11.47 6.58c3.21 1.07 7.34 3.06 10.25 3.52 2.91.46 5.97.61 5.97.61s7.03-12.69 8.87-13.46z"/><linearGradient id="p" x1="392.231" x2="404.873" y1="81.983" y2="81.983" gradientUnits="userSpaceOnUse"><stop offset="0" stop-color="#009aff"/><stop offset="1" stop-color="#fff"/></linearGradient><path fill="url(#p)" d="m399.47 73.83-6.32 2.65s-.92 2.86-.92 5.1c0 2.24.71 5.4.71 5.4l11.93 3.16s-9.99-5.51-5.4-16.31z"/><linearGradient id="q" x1="377.751" x2="390.394" y1="81.983" y2="81.983" gradientUnits="userSpaceOnUse"><stop offset="0" stop-color="#009aff"/><stop offset="1" stop-color="#fff"/></linearGradient><path fill="url(#q)" d="m383.15 73.83 6.32 2.65s.92 2.86.92 5.1c0 2.24-.71 5.4-.71 5.4l-11.93 3.16s9.99-5.51 5.4-16.31z"/><linearGradient id="r" x1="388.152" x2="394.678" y1="81.065" y2="81.065" gradientUnits="userSpaceOnUse"><stop offset="0" stop-color="#009aff"/><stop offset="1" stop-color="#fff"/></linearGradient><path fill="url(#r)" d="M388.15 75.86h6.53v10.4h-6.53z"/><linearGradient id="s" x1="388.152" x2="394.27" y1="79.026" y2="79.026" gradientUnits="userSpaceOnUse"><stop offset="0" stop-color="#009aff"/><stop offset="1" stop-color="#fff"/></linearGradient><path fill="url(#s)" d="M388.15 79.03a3.06 3.06 0 1 1 3.06 3.06 3.066 3.066 0 0 1-3.06-3.06z"/><linearGradient id="t" x1="348.474" x2="384.652" y1="80.471" y2="80.471" gradientUnits="userSpaceOnUse"><stop offset="0" stop-color="#361a31"/><stop offset=".513" stop-color="#3b1868"/><stop offset="1" stop-color="#1d0038"/></linearGradient><path fill="url(#t)" d="M348.47 80.47c0-9.99 8.1-18.09 18.09-18.09s18.09 8.1 18.09 18.09-8.1 18.09-18.09 18.09-18.09-8.1-18.09-18.09z"/><linearGradient id="u" x1="363.724" x2="366.512" y1="124.01" y2="81.258" gradientUnits="userSpaceOnUse"><stop offset="0" stop-color="#1dacff"/><stop offset=".112" stop-color="#20a9fb"/><stop offset=".226" stop-color="#28a0ef"/><stop offset=".342" stop-color="#3690da"/><stop offset=".458" stop-color="#497bbe"/><stop offset=".574" stop-color="#625f99"/><stop offset=".585" stop-color="#655c95"/><stop offset=".637" stop-color="#6f5f91"/><stop offset=".723" stop-color="#896886"/><stop offset=".834" stop-color="#b37774"/><stop offset=".963" stop-color="#ed8c5c"/><stop offset="1" stop-color="#ff9254"/></linearGradient><path fill="url(#u)" d="M353.14 80.47c0-7.41 6.01-13.42 13.42-13.42s13.42 6.01 13.42 13.42-6.01 13.42-13.42 13.42-13.42-6.01-13.42-13.42z"/><linearGradient id="v" x1="398.137" x2="434.315" y1="81.584" y2="81.584" gradientUnits="userSpaceOnUse"><stop offset="0" stop-color="#361a31"/><stop offset=".513" stop-color="#3b1868"/><stop offset="1" stop-color="#1d0038"/></linearGradient><path fill="url(#v)" d="M398.14 81.58c0-9.99 8.1-18.09 18.09-18.09s18.09 8.1 18.09 18.09-8.1 18.09-18.09 18.09-18.09-8.1-18.09-18.09z"/><linearGradient id="w" x1="413.248" x2="416.036" y1="127.239" y2="84.488" gradientUnits="userSpaceOnUse"><stop offset="0" stop-color="#1dacff"/><stop offset=".112" stop-color="#20a9fb"/><stop offset=".226" stop-color="#28a0ef"/><stop offset=".342" stop-color="#3690da"/><stop offset=".458" stop-color="#497bbe"/><stop offset=".574" stop-color="#625f99"/><stop offset=".585" stop-color="#655c95"/><stop offset=".637" stop-color="#6f5f91"/><stop offset=".723" stop-color="#896886"/><stop offset=".834" stop-color="#b37774"/><stop offset=".963" stop-color="#ed8c5c"/><stop offset="1" stop-color="#ff9254"/></linearGradient><path fill="url(#w)" d="M402.8 81.58c0-7.41 6.01-13.42 13.42-13.42s13.42 6.01 13.42 13.42S423.63 95 416.22 95c-7.41.01-13.42-6-13.42-13.42z"/><linearGradient id="x" x1="390.077" x2="392.081" y1="131.819" y2="242.057" gradientUnits="userSpaceOnUse"><stop offset="0" stop-color="#a1baff"/><stop offset=".433" stop-color="#fff"/></linearGradient><path fill="url(#x)" d="m391.38 129.48 3.56 35.05-3.2 43.68 4.01 34.74-4.55.77-4-35.54 3.2-43.18-3.56-36.52 4.54 1"/><linearGradient id="y" x1="625.891" x2="265.932" y1="562.63" y2="560.684" gradientUnits="userSpaceOnUse"><stop offset="0" stop-color="#aebdf0"/><stop offset=".207" stop-color="#acb8f1"/><stop offset=".462" stop-color="#a6a9f4"/><stop offset=".741" stop-color="#9c90f9"/><stop offset="1" stop-color="#9072ff"/></linearGradient><ellipse cx="414.28" cy="561.49" fill="url(#y)" rx="157.07" ry="13.39"/><linearGradient id="z" x1="403.096" x2="405.411" y1="541.729" y2="557.931" gradientUnits="userSpaceOnUse"><stop offset="0" stop-color="#270036"/><stop offset=".594" stop-color="#4f008b"/><stop offset="1" stop-color="#4c24b1"/></linearGradient><path fill="url(#z)" d="m325.26 559.45 3.46-11.57s.8-3.59 7.85-3.59h137.66s6.52-.29 8.38 4.52c2.48 6.39 3.19 9.58 3.19 9.58s2.26 4.92-6.12 4.92H328.99s-3.73.26-3.73-3.86z"/><linearGradient id="A" x1="325.257" x2="486.07" y1="561.377" y2="561.377" gradientUnits="userSpaceOnUse"><stop offset="0" stop-color="#a1baff"/><stop offset="1" stop-color="#fff"/></linearGradient><path fill="url(#A)" d="M328.98 563.3h150.69c5.87 0 6.52-2.41 6.38-3.86h-160.8c.01 4.13 3.73 3.86 3.73 3.86z"/><linearGradient id="B" x1="404.883" x2="404.883" y1="522.673" y2="303.945" gradientUnits="userSpaceOnUse"><stop offset="0" stop-color="#270036"/><stop offset=".594" stop-color="#4f008b"/><stop offset="1" stop-color="#4c24b1"/></linearGradient><path fill="url(#B)" d="M571.4 510.37c0 8.81-7.15 15.96-15.96 15.96H254.32c-8.81 0-15.96-7.15-15.96-15.96V319.55c0-8.81 7.15-15.96 15.96-15.96h301.12c8.82 0 15.96 7.15 15.96 15.96v190.82z"/><linearGradient id="C" x1="405.769" x2="405.769" y1="498.372" y2="315.745" gradientUnits="userSpaceOnUse"><stop offset="0" stop-color="#7633ff"/><stop offset=".216" stop-color="#4e53ff"/><stop offset=".436" stop-color="#2c6dff"/><stop offset=".646" stop-color="#1480ff"/><stop offset=".839" stop-color="#058cff"/><stop offset="1" stop-color="#0090ff"/></linearGradient><path fill="url(#C)" d="M254.68 319.2h302.18v172.02H254.68z"/><linearGradient id="D" x1="345.607" x2="460.449" y1="457.11" y2="457.11" gradientUnits="userSpaceOnUse"><stop offset="0" stop-color="#270036"/><stop offset=".594" stop-color="#4f008b"/><stop offset="1" stop-color="#4c24b1"/></linearGradient><path fill="url(#D)" d="M460.45 463.58c0 7.67-6.22 13.89-13.89 13.89h-87.07c-7.67 0-13.89-6.22-13.89-13.89v-12.94c0-7.67 6.22-13.89 13.89-13.89h87.07c7.67 0 13.89 6.22 13.89 13.89v12.94z"/><linearGradient id="E" x1="345.607" x2="460.449" y1="453.762" y2="453.762" gradientUnits="userSpaceOnUse"><stop offset="0" stop-color="#e19000"/><stop offset=".207" stop-color="#e39504"/><stop offset=".462" stop-color="#e9a410"/><stop offset=".741" stop-color="#f3bd23"/><stop offset="1" stop-color="#ffdb3b"/></linearGradient><path fill="url(#E)" d="M460.45 460.23c0 7.67-6.22 13.89-13.89 13.89h-87.07c-7.67 0-13.89-6.22-13.89-13.89v-12.94c0-7.67 6.22-13.89 13.89-13.89h87.07c7.67 0 13.89 6.22 13.89 13.89v12.94z"/><text fill="#fff" font-family="MyriadPro-Bold" font-size="36.419" transform="translate(371.834 466.325)">BUY</text><path fill="none" stroke="#231f20" stroke-linecap="round" stroke-linejoin="round" stroke-miterlimit="10" stroke-width="3.898" d="M400.63 502.57c0-2.35 1.91-4.26 4.26-4.26 2.35 0 4.26 1.91 4.26 4.26 0 2.35-1.91 4.26-4.26 4.26a4.263 4.263 0 0 1-4.26-4.26z"/><linearGradient id="F" x1="238.428" x2="571.337" y1="519.058" y2="519.058" gradientUnits="userSpaceOnUse"><stop offset="0" stop-color="#a1baff"/><stop offset="1" stop-color="#fff"/></linearGradient><path fill="url(#F)" d="M238.43 511.79c.72 8.15 7.56 14.54 15.89 14.54h301.12c8.34 0 15.18-6.39 15.89-14.54h-332.9z"/><linearGradient id="G" x1="390.962" x2="420.222" y1="538.432" y2="538.432" gradientUnits="userSpaceOnUse"><stop offset="0" stop-color="#270036"/><stop offset=".594" stop-color="#4f008b"/><stop offset="1" stop-color="#4c24b1"/></linearGradient><path fill="url(#G)" d="M390.96 526.33h29.26v24.21h-29.26z"/><linearGradient id="H" x1="379.523" x2="446.69" y1="354.58" y2="354.58" gradientUnits="userSpaceOnUse"><stop offset="0" stop-color="#a1baff"/><stop offset="1" stop-color="#fff"/></linearGradient><path fill="url(#H)" d="M446.69 354.58a6.78 6.78 0 0 1-6.78 6.78h-53.6a6.78 6.78 0 0 1-6.78-6.78 6.78 6.78 0 0 1 6.78-6.78h53.6a6.78 6.78 0 0 1 6.78 6.78z"/><linearGradient id="I" x1="384.71" x2="442.434" y1="372.602" y2="372.602" gradientUnits="userSpaceOnUse"><stop offset="0" stop-color="#a1baff"/><stop offset="1" stop-color="#fff"/></linearGradient><path fill="url(#I)" d="M442.43 372.6c0 4-3.25 7.25-7.25 7.25h-43.23c-4 0-7.25-3.25-7.25-7.25s3.25-7.25 7.25-7.25h43.23c4.01 0 7.25 3.25 7.25 7.25z"/><linearGradient id="J" x1="376.331" x2="396.016" y1="412.104" y2="412.104" gradientUnits="userSpaceOnUse"><stop offset="0" stop-color="#a1baff"/><stop offset="1" stop-color="#fff"/></linearGradient><path fill="url(#J)" d="M376.33 412.1c0-5.47 4.41-9.91 9.84-9.91 5.44 0 9.84 4.44 9.84 9.91s-4.41 9.91-9.84 9.91-9.84-4.43-9.84-9.91z"/><linearGradient id="K" x1="411.311" x2="430.995" y1="412.104" y2="412.104" gradientUnits="userSpaceOnUse"><stop offset="0" stop-color="#a1baff"/><stop offset="1" stop-color="#fff"/></linearGradient><path fill="url(#K)" d="M411.31 412.1c0-5.47 4.41-9.91 9.84-9.91 5.44 0 9.84 4.44 9.84 9.91s-4.41 9.91-9.84 9.91-9.84-4.43-9.84-9.91z"/><linearGradient id="L" x1="345.607" x2="438.045" y1="369.077" y2="369.077" gradientUnits="userSpaceOnUse"><stop offset="0" stop-color="#a1baff"/><stop offset="1" stop-color="#fff"/></linearGradient><path fill="url(#L)" d="M360.37 354.58h-7.71s-7.05 0-7.05-7.05c0-4.79 3.72-7.18 7.38-7.18h13.5s4.92-.12 6.92 8.11c2.37 9.79 9.44 34.71 9.44 34.71H431s7.05.27 7.05 6.92-5.99 7.71-5.99 7.71h-54.53s-5.59-.27-6.52-5.19c-.93-4.91-10.64-38.03-10.64-38.03z"/><linearGradient id="M" x1="738.501" x2="594.568" y1="554.436" y2="553.658" gradientUnits="userSpaceOnUse"><stop offset="0" stop-color="#aebdf0"/><stop offset=".207" stop-color="#acb8f1"/><stop offset=".462" stop-color="#a6a9f4"/><stop offset=".741" stop-color="#9c90f9"/><stop offset="1" stop-color="#9072ff"/></linearGradient><path fill="url(#M)" d="M716.69 553.98c0 4.13-28.12 7.48-62.8 7.48-34.69 0-62.8-3.35-62.8-7.48 0-4.13 28.12-7.48 62.8-7.48 34.68 0 62.8 3.35 62.8 7.48z"/><path fill="#fff" d="M720.68 353.82s1.74-3.24 2.02-3.73c.28-.49 1.69-1.18 3.37-1.83 1.68-.65 4.25-.78 4.51-.6.25.18.59.24.87 1 .27.75.09 1.54.09 1.54s.77.77.47 1.72c0 0 .69.76.17 1.78 0 0 .65.76.22 1.47 0 0-1.41.69-1.86 1.1-.45.41-3.48 1.65-6.57 2.39-.01.01-3.17-.27-3.29-4.84z"/><path fill="#23344a" d="M728.78 357.13c-.14.06-.28.11-.43.17-.08.03-.15.06-.23.09-.08.03-.15.06-.23.09.11.38.22.72.33 1.02l.99-.03c-.13-.36-.28-.82-.43-1.34zm-.75-2.47c.11.22.2.45.29.67.02.06.04.11.06.16.02.06.04.12.06.17-.21-1.08-.33-2.3-.21-3.5-.01.03-.02.06-.04.09-.01.01-.01.02-.02.03-.01.01-.01.02-.02.03l-.01.01c-.01.01-.02.02-.02.03l-.01.01-.03.03a1.198 1.198 0 0 1-.26.2c-.08.04-.16.08-.26.12-.02.01-.04.02-.07.03h-.01c-.02.01-.05.01-.07.02-.02.01-.04.01-.06.02l-.1.03c-.01.2-.01.4 0 .59l.02.02c.03.03.06.07.09.1l.08.11c.04.05.08.11.11.16.03.04.05.08.08.12.01.01.01.02.02.02.03.04.06.09.08.14.09.14.17.29.24.44.01.05.03.1.06.15zm20.09 3.51-.05-.26-.26-1.49c-.02-.08-.39-1.89-1.38-4.08-.93-2.04-2.6-4.79-5.27-6.34-1.73-1-3.67-1.38-5.79-1.14-.88.1-1.8.31-2.75.63-1.05.35-1.96.84-2.7 1.44-.27.22-.52.45-.75.7-.28.3-.52.62-.74.97-.19.31-.36.63-.51.97-.21.49-.37 1-.47 1.52-.12.57-.18 1.15-.2 1.73-.01.2-.01.4 0 .59a14.583 14.583 0 0 0 .38 2.99c.09.38.18.74.28 1.08.11.38.22.72.33 1.02.01.02.01.04.02.06.16.46.31.81.39.99.04.08.06.13.07.15l.15.32 9.71-.22 9.8-.22-.26-1.41zm-1.71.95-3.7-.03-13.3-.11c-.05-.11-.1-.26-.16-.42l-.03-.09c-.13-.35-.28-.81-.43-1.33-.02-.08-.05-.16-.07-.25-.05-.18-.1-.37-.14-.57-.05-.21-.09-.43-.14-.65-.21-1.08-.33-2.3-.21-3.5l.03-.24v-.01c.09-.68.25-1.35.52-1.98.38-.87.93-1.62 1.66-2.22.02-.02.05-.04.07-.06.66-.53 1.46-.96 2.4-1.27.74-.25 1.47-.43 2.17-.53 2.07-.31 3.95.01 5.6.97.63.36 1.22.84 1.78 1.4 2.59 2.6 4.39 6.95 4.94 9.71.02.12.05.23.06.35.05.31.09.6.1.85l-1.15-.02zm-18.18-6.96c-.01.03-.02.06-.04.09-.01.01-.01.02-.02.03-.01.01-.01.02-.02.03l-.01.01c-.01.01-.02.02-.02.03l-.01.01-.03.03a1.198 1.198 0 0 1-.26.2c-.08.04-.16.08-.26.12-.02.01-.04.02-.07.03h-.01c-.02.01-.05.01-.07.02-.02.01-.04.01-.06.02l-.1.03c-.01.2-.01.4 0 .59l.02.02c.03.03.06.07.09.1l.08.11c.04.05.08.11.11.16.03.04.05.08.08.12.01.01.01.02.02.02.03.04.06.09.08.14.09.14.17.29.24.44.02.05.05.1.07.15.11.22.2.45.29.67.02.06.04.11.06.16.02.06.04.12.06.17-.22-1.08-.34-2.3-.22-3.5zm.55 4.97c-.14.06-.28.11-.43.17-.08.03-.15.06-.23.09-.08.03-.15.06-.23.09.11.38.22.72.33 1.02l.99-.03c-.13-.36-.28-.82-.43-1.34z"/><path d="m769.7 399.78-45.97 5.98-7.79-42.09 48.05-8.22z"/><path fill="#23344a" d="M746.41 359.12v-.06c0-.03-.01-.24-.04-.6-.01-.15-.03-.31-.05-.5-.09-.82-.28-2.02-.64-3.38-.51-1.89-1.46-4.38-3.2-6.36-.36-.41-.76-.8-1.19-1.16-1.65-1.36-3.63-2.09-5.91-2.19-.92-.04-1.89.02-2.9.18-2.26.36-4.01 1.33-5.21 2.87-.14.18-.27.37-.4.56-.42.65-.73 1.35-.96 2.07-.22.67-.36 1.36-.45 2.05-.01.11-.03.23-.04.34l-.03.36c-.03.46-.05.92-.05 1.36a20.297 20.297 0 0 0 .36 3.54c.03.13.05.25.07.36.07.35.13.57.15.61l.1.36 2.61.01 11.3.02 6.5.01-.02-.45zm-18.17-.57h-1.45v-.01c-.04-.16-.08-.38-.13-.63-.1-.54-.21-1.28-.27-2.11-.04-.52-.06-1.08-.04-1.66.01-.4.04-.81.08-1.22.01-.06.01-.11.02-.17.06-.51.16-1.02.29-1.52.01-.03.01-.05.02-.08l.09-.3c.2-.64.48-1.26.84-1.82.01-.02.03-.04.04-.07.32-.49.7-.92 1.13-1.29.32-.28.67-.52 1.05-.73.78-.44 1.68-.74 2.71-.9.86-.14 1.68-.2 2.46-.18 2.16.06 4.03.72 5.56 1.98 3.43 2.81 4.4 7.92 4.68 10.16.03.23.05.43.06.6l-16.14-.03-1-.02z"/><linearGradient id="N" x1="708.957" x2="763.119" y1="381.995" y2="381.995" gradientUnits="userSpaceOnUse"><stop offset="0" stop-color="#7633ff"/><stop offset=".159" stop-color="#7137ff"/><stop offset=".353" stop-color="#6243ff"/><stop offset=".568" stop-color="#4957ff"/><stop offset=".794" stop-color="#2672ff"/><stop offset="1" stop-color="#0090ff"/></linearGradient><path fill="url(#N)" d="m762.61 406.52-53.65-4.13 4.31-43.46 49.85-1.46z"/><path fill="#fff" d="M612.76 382.47s.44-3.65.49-4.21c.05-.56-.71-1.93-1.71-3.43-1-1.5-3.03-3.08-3.34-3.08-.31 0-.63-.14-1.28.32s-.95 1.21-.95 1.21-1.07.19-1.37 1.14c0 0-1 .22-1.17 1.36 0 0-.97.24-1.02 1.08 0 0 .76 1.38.89 1.97.13.59 1.9 3.35 4 5.73-.01-.01 2.74 1.57 5.46-2.09z"/><path fill="#23344a" d="M618.68 387.51c.45-3.41-.01-7.73-2.25-10.35-2.04-2.38-5.16-2.84-8.23-2.35-2.38.38-4.22 1.42-5.59 2.91-2.88 3.12-3.65 8.35-3.22 12.52l19.29-2.73zm-18.43 1.66c0-.08-.01-.17-.01-.27-.07-1.97.06-7.26 3.07-10.53 1.37-1.48 3.11-2.31 5.08-2.62 2.74-.43 5.53-.07 7.33 2.03 1.91 2.21 2.38 5.99 2.12 8.9l-17.59 2.49z"/><linearGradient id="O" x1="578.807" x2="590.183" y1="414.433" y2="414.433" gradientUnits="userSpaceOnUse"><stop offset="0" stop-color="#270036"/><stop offset=".594" stop-color="#4f008b"/><stop offset="1" stop-color="#4c24b1"/></linearGradient><path fill="url(#O)" d="m578.81 437.08 3.52-45.29 7.85 44.66-5.43-.95z"/><linearGradient id="P" x1="582.202" x2="636.849" y1="410.611" y2="410.611" gradientUnits="userSpaceOnUse"><stop offset="0" stop-color="#7633ff"/><stop offset=".159" stop-color="#7137ff"/><stop offset=".353" stop-color="#6243ff"/><stop offset=".568" stop-color="#4957ff"/><stop offset=".794" stop-color="#2672ff"/><stop offset="1" stop-color="#0090ff"/></linearGradient><path fill="url(#P)" d="m590.18 436.45 46.67-8.21-7.64-43.47-47.01 6.69z"/><path fill="#23344a" d="M640.03 404.42c1-2.26 1.63-5.08.83-7.43-.61-1.78-1.94-2.95-3.65-3.67l-.3.72c1.64.69 2.72 1.77 3.22 3.21.77 2.22.04 5.02-.92 7.12l.82.05z"/><linearGradient id="Q" x1="605.729" x2="650.48" y1="422.214" y2="422.214" gradientUnits="userSpaceOnUse"><stop offset="0" stop-color="#a1baff"/><stop offset="1" stop-color="#fff"/></linearGradient><path fill="url(#Q)" d="m605.73 438.18 38.24 4.98 6.51-35.05-39.98-6.84z"/><linearGradient id="R" x1="597.938" x2="610.472" y1="419.627" y2="419.627" gradientUnits="userSpaceOnUse"><stop offset="0" stop-color="#a1baff"/><stop offset="1" stop-color="#fff"/></linearGradient><path fill="url(#R)" d="m597.94 437.08 12.53-35.78-4.74 36.66-4.06-1.51z"/><path fill="#23344a" d="M642.21 403.94c.26-1.08 1.16-5.55-.84-8.66l-.7.44c.11.17.21.34.3.52 1.36 2.69.69 6.34.45 7.41l.79.29z"/><linearGradient id="S" x1="601.669" x2="611.628" y1="423.673" y2="423.673" gradientUnits="userSpaceOnUse"><stop offset="0" stop-color="#270036"/><stop offset=".594" stop-color="#4f008b"/><stop offset="1" stop-color="#4c24b1"/></linearGradient><path fill="url(#S)" d="m601.67 442.44 8.51-38.66 1.45 39.79-4.64-1.78z"/><path fill="#eea886" d="M607.29 384.55s2.86 2.54 4.34 2.59c1.47.05 2.23-4 2.23-4l-1.27-2.48-5.3 3.89z"/><path fill="#fff" d="M718.73 356.13s1.43-1.35 2.06-2.52c.63-1.17 3.48 5 3.48 5s-3.55.15-5.12 1.25c-1.56 1.1-.42-3.73-.42-3.73z"/><linearGradient id="T" x1="725.351" x2="732.529" y1="352.034" y2="352.034" gradientUnits="userSpaceOnUse"><stop offset="0" stop-color="#a1baff"/><stop offset="1" stop-color="#fff"/></linearGradient><path fill="url(#T)" d="M730.12 347.83s-4.23 1.75-4.03 2.47c.2.72.71.86.71.86l-1.41 1.51s-.37 1.53 1.4 1.49c0 0-.49 1.39 1.21 1.15 0 0 .08 1.06.9 1.09.81.03 3.49-1.22 3.49-1.22s.45-.52-.22-1.47c0 0 .55-.95-.17-1.78 0 0 .32-.83-.47-1.72 0 0 .58-1.91-.95-2.53-.01-.01-.28.07-.46.15z"/><path fill="#fff" d="M722.82 350.03s3.13.25 4.78 1.14c.37.2.7.46.65.89-.05.42-.72.89-2.08.85-1.36-.04-3.14.53-3.14.53s-1.39-.45-.21-3.41z"/><linearGradient id="U" x1="602.401" x2="610.441" y1="375.846" y2="375.846" gradientUnits="userSpaceOnUse"><stop offset="0" stop-color="#a1baff"/><stop offset="1" stop-color="#fff"/></linearGradient><path fill="url(#U)" d="M608.47 372.14s2.45 3.87 1.88 4.34c-.57.47-1.07.3-1.07.3l.29 2.05s-.58 1.46-2 .41c0 0-.4 1.42-1.65.24 0 0-.68.82-1.36.38-.68-.44-2.15-3-2.15-3s-.07-.68 1.02-1.08c0 0 .09-1.1 1.17-1.36 0 0 .21-.87 1.37-1.14 0 0 .62-1.89 2.23-1.53 0 .01.17.22.27.39z"/><path fill="#fff" d="M613.19 378.14s-2.71-1.59-4.57-1.81c-.42-.05-.84-.02-1.04.35-.21.37.07 1.14 1.21 1.89s2.26 2.24 2.26 2.24 1.4.42 2.14-2.67z"/><linearGradient id="V" x1="647.416" x2="666.673" y1="545.204" y2="545.204" gradientUnits="userSpaceOnUse"><stop offset="0" stop-color="#270036"/><stop offset=".594" stop-color="#4f008b"/><stop offset="1" stop-color="#4c24b1"/></linearGradient><path fill="url(#V)" d="M663.42 547.19c-2.19.66-2.85 4.38-4.71 5.47-1.86 1.09-10.95 1.86-11.28-.99-.33-2.85 3.81-5.4 5.67-6.82 1.86-1.42 6.04-6.1 6.89-7.96 0 0 .75 1.19 2.98.82s2.6-.96 2.6-.96c-.08 2.2.69 3.77.91 4.62.77 2.97-.87 5.16-3.06 5.82z"/><linearGradient id="W" x1="664.11" x2="681.404" y1="545.29" y2="545.29" gradientUnits="userSpaceOnUse"><stop offset="0" stop-color="#270036"/><stop offset=".594" stop-color="#4f008b"/><stop offset="1" stop-color="#4c24b1"/></linearGradient><path fill="url(#W)" d="M678.26 547.7c-1.69 1.54-2.01 3.99-3.87 5.09-.54.32-1.6.63-2.85.86-2.27.41-5.15.49-6.57-.33-.48-.28-.79-.66-.85-1.18-.33-2.85 3.89-6.03 5.75-7.46 1.15-.87 2.33-2.91 3.28-4.78.59-1.17 1.08-2.27 1.41-2.99.01.01.11.21.38.4.38.27 1.11.55 2.39.34 1.78-.29 2.47-.76 2.67-.94l.03-.03.03-.03.01-.01.01-.01c.37 1.78.94 3.6 1.16 4.45.77 2.97-1.38 5.16-2.98 6.62z"/><path d="M662.2 323s7.11-.74 9.67 6.12c2.56 6.87 4.97 9.11 5.28 12.72 1.22 14.59 8.03 11.29 6.12 19.7-1.92 8.41-3.24 9.68-3.24 9.68l-16.29-3.19-16.5.05s6.46-3.22 5.02-10.09c-1.44-6.87-5.02-18.12-3-25.78 2.02-7.67 8.69-8.62 12.94-9.21z"/><linearGradient id="X" x1="610.215" x2="653.649" y1="423.579" y2="423.579" gradientUnits="userSpaceOnUse"><stop offset="0" stop-color="#e19000"/><stop offset=".207" stop-color="#e39504"/><stop offset=".462" stop-color="#e9a410"/><stop offset=".741" stop-color="#f3bd23"/><stop offset="1" stop-color="#ffdb3b"/></linearGradient><path fill="url(#X)" d="m611.63 443.57 41.26-1.45.76-38.53h-43.44z"/><path fill="#00759f" d="m780.51 396.7-16.52-41.25 5.71 44.33 4.81-2.82z"/><path fill="#a600a9" d="m774.57 405.17-11.45-47.7-.51 49.05 5.57-2.13z"/><path fill="#fff" d="M650.46 420.9s-5.99 20.88-7.04 26.21c-1.04 5.33-3.97 31.14-4.28 35.53-.31 4.39 9.78 24.97 10.33 26.45 2.13 5.75 10.84 26.58 10.84 26.58s5.63 3.34 5-1.55c-1.91-14.87-2.81-18.55-4.15-26.27-2.93-16.91-8.99-19.12-8.07-21.59 9.38-24.93 11.27-41.85 12.52-43.31 1.25-1.46 1.43.75 2.16 3.99.73 3.24-.3 25.54 1.02 34.14.72 4.69 2.33 15.19 2.85 21.25.52 6.06 3.26 34.11 3.26 34.11s.36 1.05 4.54-1.27c.69-.38 4.01-24.79 4.11-32 .1-7.21-3.08-8.24-.53-22.2 5.48-29.92 4.72-35.07-1.67-56.58-15.63-52.63-30.89-3.49-30.89-3.49z"/><linearGradient id="Y" x1="608.128" x2="723.545" y1="390.155" y2="390.155" gradientUnits="userSpaceOnUse"><stop offset="0" stop-color="#270036"/><stop offset=".594" stop-color="#4f008b"/><stop offset="1" stop-color="#4c24b1"/></linearGradient><path fill="url(#Y)" d="M723.55 359.76c-.25-.26-15.45 11.38-17.11 12.34-3.26 1.89-6.81 1.79-10.5 2.02-4.14.25-8.83-.19-12.89.63-2.11.42-2.35.97-3.45 3.21-2.98 6.09-3.95 13.66-4.34 20.36-.41 6.98 2.27 11.83 5.08 18 .96 2.09 2.3 4.25.45 6.16-1.67 1.72-4.94 2.07-7.13 2.35-5.38.7-13.63 1.14-18.82-1-6.34-2.62-5.21-10.6-5.88-16.17-.45-3.73-2.26-9.32-3.29-12.94-1.02-3.57-1.13-5.07-.94-8.86-1.98 5.62-3.65 15.22-8.97 18.78-4.12 2.76-7.8-.94-10.76-3.52l-16.86-14.67 3.59-3.32c.39-.36.41-.46.86-.82 1.05-.84.93-1.15 2.01-.41.73.5 2.67 2.3 3.29 2.87 2.03 1.89 3.82 3.04 5.86 4.94 1.77 1.65 4.8 5.47 7.52 4.13 2.09-1.03 2.66-5.28 3.38-7.17 1.99-5.27 4-10.57 6.38-15.68 2.54-5.47 8.18-8.37 13.64-10.55 4.73-1.89 11.06-1.51 15.85-.29 3.37.86 4.57.91 7.92 1.84 3.2.89 6.2 2.03 9.44 2.7 3.79.78 7.65 1.05 11.51 1.1 3.03.04 4.29-.47 6.84-2.25 3.43-2.38 8.46-6.5 12.23-8.41 2.41-1.22 3.23 2.73 5.09 4.63z"/><path fill="#fff" d="M667.11 351.52s-.57 7.1.79 9.22c1.37 2.13-1.17 5.01-6.39 4.02-5.23-.99-4.92-3.95-4.92-3.95s1.46-4.38 1.03-7.89c-.42-3.49 9.49-1.4 9.49-1.4z"/><path fill="#fff" d="M670.51 360.15s-4.71 11.01-10.82 13.31c0 0-6.02-5.35-4.4-13.26 0-.01 7.77-3.99 15.22-.05zM663.13 327.02s9.42 1.36 8.04 15.26c-1.38 13.9-9.69 12.8-10.24 12.79-.55-.01-8.34.29-9.01-16.67 0-.01-.32-12.56 11.21-11.38z"/><path d="M662.06 332.05s4.4 4.63 6.44 6.97 2.28 6.87 2.28 6.87 3.44-4.2 2-9.1c-1.44-4.9-4.85-14.42-13.47-11.5-8.62 2.93-8.94 15.81-7.93 22.19 0 0 3.87-14.1 10.68-15.43z"/><path fill="#223247" d="M658.44 354.47s4.03 2.02 8.11-1.17c0 0-1.57 2.61-4.3 2.75-2.74.15-3.81-1.58-3.81-1.58z"/><path fill="#23344a" d="M632.57 392.55c-.4.86-1.31 1.29-1.31 1.29-4.3 2.32-5.05 7.81-5.2 9.75l-.91-.01c.74-10.1 7.42-11.03 7.42-11.03z"/><path fill="#23344a" d="M632.32 392.61s-6.95.33-8.91 10.87l.71.11s1.36-7.77 6.91-9.85c0 0 .77-.33 1.29-1.13z"/><linearGradient id="Z" x1="636.15" x2="686.838" y1="447.616" y2="447.616" gradientUnits="userSpaceOnUse"><stop offset="0" stop-color="#270036"/><stop offset=".594" stop-color="#4f008b"/><stop offset="1" stop-color="#4c24b1"/></linearGradient><path fill="url(#Z)" d="M681.51 419.11s9.51 19.69 3.12 59.65c0 0-19.39-1.82-48.48-3.9 0 0 13.23-53.74 13.6-57.16.37-3.41 31.76 1.41 31.76 1.41z"/><path fill="#fff" d="M660.15 535.27s2.71 1.81 5.23-.6l.2 2.1s-4.29 3.86-5.43-.29v-1.21zM675.69 534.92s1.62 1.46 4.07-.73l.31 2.45s-4.18 4.27-5.31.12l.93-1.84z"/><linearGradient id="aa" x1="649.424" x2="678.784" y1="414.362" y2="414.362" gradientUnits="userSpaceOnUse"><stop offset="0" stop-color="#7633ff"/><stop offset=".216" stop-color="#4e53ff"/><stop offset=".436" stop-color="#2c6dff"/><stop offset=".646" stop-color="#1480ff"/><stop offset=".839" stop-color="#058cff"/><stop offset="1" stop-color="#0090ff"/></linearGradient><path fill="url(#aa)" d="M649.47 414.86s11.42 4.23 27.92-5.09c0 0 .66 1.34 1.4 3.19 0 0-15.04 9.28-29.03 4.74-.01 0-.48-2.12-.29-2.84z"/><linearGradient id="ab" x1="521.223" x2="431.973" y1="582.761" y2="582.278" gradientUnits="userSpaceOnUse"><stop offset="0" stop-color="#aebdf0"/><stop offset=".207" stop-color="#acb8f1"/><stop offset=".462" stop-color="#a6a9f4"/><stop offset=".741" stop-color="#9c90f9"/><stop offset="1" stop-color="#9072ff"/></linearGradient><path fill="url(#ab)" d="M507.7 582.48c0 4-17.44 7.24-38.94 7.24-21.51 0-38.94-3.24-38.94-7.24s17.44-7.24 38.94-7.24c21.5-.01 38.94 3.24 38.94 7.24z"/><path fill="#32658f" d="M487.71 578.15c.21-.06.73 5.6.15 6.28-.59.68-3.6.53-4.41.08s1.03-5.9 1.03-5.9 1.69-.01 3.23-.46zM458.61 580.27s-.12 4.66-.88 4.99c-.76.33-4.08-.23-5.88-1.21-1.8-.98-3.73-2.69-2.65-3.25s4.29-.03 5.79-.38"/><path d="M446.68 462.5s-1.14-1.7-.91-2.46c.23-.75-.45-3.82-1.09-4.28-1.05-.75-.42.96-.55 1.36-.12.4-5.28-9.02-4.8-5.47.05.37 2.1 3.45 1.98 3.83 0 0-1.67 1.52-1.27 3.37.33 1.53 1.5 2.44 2.27 3.46.65.86 1.09 1.91 1.09 1.91l3.28-1.72zM467.91 504.47s-2.46 13.94-3.12 17.43c-.66 3.49-2.53 20.38-2.72 23.25-.2 2.87-3.02 13.69-2.89 14.72.13 1.03-4.18 21.63-4.18 21.63s1.47 1.22 3.03.11c.8-.57 7.34-17.67 8.59-22.63 1.22-4.84 4.71-16.52 5.37-18.1 6.11-14.73 6.16-20.85 6.95-21.81.8-.96.87.59 1.33 2.71.46 2.12 1.46 20.45 2.06 22.77.6 2.32.13 10.19.47 14.15.33 3.97 1.79 21.91 1.79 21.91s1.13 1.82 2.71.05c.34-.38 2.74-19.98 2.8-24.7.07-4.72.14-11.23.27-13.27 1.23-19.55 4.26-22.34-.51-36.18-8.92-25.92-21.95-2.04-21.95-2.04z"/><linearGradient id="ac" x1="471.163" x2="479.845" y1="497.805" y2="534.904" gradientUnits="userSpaceOnUse"><stop offset="0" stop-color="#7633ff"/><stop offset=".216" stop-color="#4e53ff"/><stop offset=".436" stop-color="#2c6dff"/><stop offset=".646" stop-color="#1480ff"/><stop offset=".839" stop-color="#058cff"/><stop offset="1" stop-color="#0090ff"/></linearGradient><path fill="url(#ac)" d="M487.77 500.68s6.67 11.3 5.02 30.51c0 0-18.67 2.11-30.78 1.16 0 0 4-21.82 6.01-28.6 1.24-4.18 19.75-3.07 19.75-3.07z"/><path fill="#6ea2e8" d="M485.89 458.53c-.05-.01-.07-.02-.06-.03.02 0 .04.01.06.03z"/><linearGradient id="ad" x1="474.027" x2="474.846" y1="453.617" y2="501.106" gradientUnits="userSpaceOnUse"><stop offset="0" stop-color="#a1baff"/><stop offset=".305" stop-color="#c9d8ff"/><stop offset=".585" stop-color="#e7edff"/><stop offset=".826" stop-color="#f9faff"/><stop offset="1" stop-color="#fff"/></linearGradient><path fill="url(#ad)" d="M485.89 458.53c.23.34.02 3.62-.13 3.71-.28.17 2.97 2.02 5.69 3.26-1.06-.09-2.12-.17-2.99-.22-.66-.04-1.21-.06-1.57-.06-4.15-.01-6.84-.66-6.84-.66s-6.07.13-6.45.29c-4.06 1.7-4.92 1.7-6.13 2.16-.48.18-1.87.8-3.54 1.55-1.62.64-3.24 1.28-4.19 1.64-2.42.91-6.28 2.38-6.28 2.38l-6.5-10.55-4.19 2.27s5.73 15.99 9.59 16.45c2.62.31 9.05-2 12.91-3.51.27-.07.43-.12.43-.12-.13 2.32-.5 5.67 1.7 8.61 1.83 2.46.85 17.6.52 18.74l20.9-1.67c-.59-1.45-3.6-6.65-3.98-9.66-.44-3.46.52-6.84 1.33-9.68 1.24-4.31 3.46-9.35 3.46-9.35s16.38-3.24 16.09-7.16c-.3-3.9-18.6-8.05-19.83-8.42z"/><path d="M485.83 444.67c.08.14 1.98 2.02 1.55 6.69-.43 4.68.06 19.4.06 19.4s-1.27 1.7-8.54 1.81c-7.27.11-10.69-.79-10.69-.79s1.87-7.81 2.09-13.26c.22-5.45.9-13.19 3.43-15.45 2.52-2.25 9.55-3.16 12.1 1.6z"/><linearGradient id="ae" x1="323.374" x2="148.555" y1="569.143" y2="568.198" gradientUnits="userSpaceOnUse"><stop offset="0" stop-color="#aebdf0"/><stop offset=".207" stop-color="#acb8f1"/><stop offset=".462" stop-color="#a6a9f4"/><stop offset=".741" stop-color="#9c90f9"/><stop offset="1" stop-color="#9072ff"/></linearGradient><path fill="url(#ae)" d="M296.88 568.59c0 5.02-34.15 9.09-76.28 9.09s-76.28-4.07-76.28-9.09 34.15-9.09 76.28-9.09 76.28 4.07 76.28 9.09z"/><path fill="#16202e" d="M261.23 561.84s6.41 8.63 5.53 10c-.88 1.37-7.62 1.56-11.73 0s-4.2-11.68-6.06-16.03c-.78-1.82.89-7.19 3.23-7.58 2.34-.39 4.88.75 4.88.75s-2.42 6.13 4.15 12.86z"/><path fill="#16202e" d="M248.98 555.82v9.03h1.17v-6.98zM205.41 561.99s6.18 8.49 5.3 9.86c-.88 1.37-7.62 1.56-11.73 0-4.1-1.56-4.2-11.68-6.06-16.03-.78-1.82.89-7.19 3.22-7.58 2.34-.39 5.08.84 5.08.84s-2.38 6.17 4.19 12.91z"/><path fill="#16202e" d="M192.93 555.82v9.03h1.17v-6.98z"/><path fill="#84350d" d="M258.55 555.91c-.49-3.48-1.41-6.93-1.42-6.99-1.62-7.55-7.79-36.54-7.57-38.18.25-1.89-5.11-21.9-5.49-27.2-.38-5.31-3.92-36.52-5.18-42.97-1.26-6.45-5.94-32.21-5.94-32.21s-22.83-59.88-41.75 3.76c-7.73 26.01-3.31 30.74-.97 66.87.24 3.77.38 15.8.51 24.52.12 8.38 4.47 42.09 5.25 45.4-.19.93-.46 2.76-.33 5.17.2 3.53 1.86 9.37 4.01 11.38 2.15 2.02 7.43 1.31 7.62.53.19-.78-4.01-7.23-4.79-10.07-.78-2.83-1.27-6.84-1.27-6.84s2.77-33.16 3.41-40.49c.63-7.33-.25-21.86.89-26.16 1.14-4.3 3.03-38.17 3.92-42.08.88-3.92 3.16-6.7 4.68-4.93 1.52 1.77 7.17 39.53 8.06 42.6.89 3.06 10.92 22.14 13.24 31.09 2.08 8.02 11.87 33.21 15.3 40.1.01.04.56 1.65 1 4.88.47 3.51 1.86 9.37 4.01 11.38 2.15 2.02 7.43 1.31 7.62.53.18-.8-4.4-7.18-4.81-10.09zM159.53 412.32s-1.65 2.18-2.51 2.45c-.86.27-1.85 1.78-2.56 2.17-.72.39-3.07.77-3.64 1.42-.23.27-.99 2.48-1.52 2.98s-1.74 1.37-1.29 1.82c.45.45 1.76-.04 1.76-.04s-.46.48-.18.99c.54 1 1.26.98 1.26.98s-.14.79.19 1.15c.73.79 1.42.76 1.42.76s.13.59.73 1.01c.77.54 1.61.13 1.61.13s.81.89 1.44.65c.63-.24.96-.74 1.39-1.06.43-.32 3.27-4.23 4.07-7.74.81-3.51 2.82-5.89 2.82-5.89l-4.99-1.78z"/><path fill="#23344a" d="m160.47 437.95-19.87-3.26.1-.5c.02-.08.4-1.97 1.44-4.25.97-2.13 2.71-5 5.49-6.61 2.57-1.48 5.56-1.66 8.9-.54 2.39.8 4.03 2.23 4.9 4.25 1.94 4.51-.7 10.32-.81 10.56l-.15.35zm-18.69-4.06 18.1 2.97c.52-1.28 2.18-5.9.66-9.42-.75-1.75-2.21-3-4.31-3.71-3.06-1.03-5.79-.88-8.1.46-4.18 2.41-5.91 8.01-6.35 9.7z"/><linearGradient id="af" x1="108.126" x2="182.543" y1="463.632" y2="463.632" gradientUnits="userSpaceOnUse"><stop offset="0" stop-color="#a1baff"/><stop offset=".015" stop-color="#a7bfff"/><stop offset=".09" stop-color="#c3d3ff"/><stop offset=".175" stop-color="#d9e3ff"/><stop offset=".274" stop-color="#eaf0ff"/><stop offset=".396" stop-color="#f6f8ff"/><stop offset=".563" stop-color="#fdfeff"/><stop offset="1" stop-color="#fff"/></linearGradient><path fill="url(#af)" d="m108.13 490.18 63.62 8.28 10.79-58.27-66.52-11.39z"/><linearGradient id="ag" x1="93.146" x2="116.018" y1="459.493" y2="459.493" gradientUnits="userSpaceOnUse"><stop offset="0" stop-color="#7633ff"/><stop offset=".159" stop-color="#7137ff"/><stop offset=".353" stop-color="#6243ff"/><stop offset=".568" stop-color="#4957ff"/><stop offset=".794" stop-color="#2672ff"/><stop offset="1" stop-color="#0090ff"/></linearGradient><path fill="url(#ag)" d="m93.15 485.91 22.87-57.11-7.89 61.38-6.67-3.9z"/><path fill="#23344a" d="m163.44 437.39-21.27.04.02-.54c0-.09.08-2.12.77-4.68.64-2.38 1.96-5.68 4.58-7.84 2.42-1.99 5.51-2.69 9.18-2.1 2.63.42 4.59 1.63 5.85 3.58 2.8 4.36 1.05 10.87.98 11.15l-.11.39zm-20.18-1 19.38-.04c.32-1.42 1.25-6.53-.94-9.94-1.09-1.69-2.82-2.74-5.14-3.12-3.37-.54-6.18.09-8.36 1.88-3.94 3.24-4.78 9.38-4.94 11.22z"/><linearGradient id="ah" x1="117.246" x2="187.389" y1="468.21" y2="468.21" gradientUnits="userSpaceOnUse"><stop offset="0" stop-color="#7633ff"/><stop offset=".216" stop-color="#4e53ff"/><stop offset=".436" stop-color="#2c6dff"/><stop offset=".646" stop-color="#1480ff"/><stop offset=".839" stop-color="#058cff"/><stop offset="1" stop-color="#0090ff"/></linearGradient><path fill="url(#ah)" d="m119.63 500.88 67.76-2.37-7.28-62.65-62.86-.32z"/><linearGradient id="ai" x1="103.28" x2="119.632" y1="468.21" y2="468.21" gradientUnits="userSpaceOnUse"><stop offset="0" stop-color="#270036"/><stop offset=".594" stop-color="#4f008b"/><stop offset="1" stop-color="#4c24b1"/></linearGradient><path fill="url(#ai)" d="m103.28 499.02 13.97-63.48 2.38 65.34-7.62-2.92z"/><path fill="#84350d" d="M149.9 422.67s2.48-3.3 3.9-3.36c1.42-.06.59 1.18.59 1.18s.8-1.24 1.87-.71c1.08.53.03 1.94.03 1.94s.86-.78 1.72.13-.28 1.87-.28 1.87 1.84-.43 1.61 1.1c-.39 2.57-3.09 3.98-3.09 3.98s-.68.28-1.44-.65c0 0-1.63.79-2.34-1.14 0 0-2.08-.27-1.61-1.91-.01-.01-2.21-.43-.96-2.43z"/><path fill="#eea886" d="M227.62 315.85c-.3-.3.4-6.84.54-8.15v-.02l.01-.01c.03-.03.66-.73 1.21-.62.26.05.45.27.57.65.39 1.19-.61 4.3-1.04 5.63-.08.23-.13.4-.15.49-.11.33-.65 1.99-1 2.07h-.04c-.04.01-.07-.01-.1-.04zm.66-8.11c-.32 2.97-.77 7.77-.57 8.03.01.01.01.01.02.01.2-.05.65-1.19.91-1.99.03-.09.08-.26.16-.49.39-1.2 1.42-4.4 1.04-5.55-.11-.33-.27-.52-.48-.56-.03-.01-.07-.01-.1-.01-.43-.01-.9.47-.98.56z"/><path d="M216.32 289.82s-8.44-.88-11.48 7.27c-3.04 8.15-5.91 10.82-6.27 15.1-1.45 17.32-9.54 13.4-7.26 23.39 2.27 9.98 3.85 11.5 3.85 11.5l19.34-3.79 19.59.06s-7.66-3.83-5.96-11.98c1.71-8.15 5.96-21.51 3.56-30.61-2.41-9.1-10.33-10.24-15.37-10.94z"/><path fill="#eea886" d="M205.98 315.89c-.35-.08-.89-1.74-1-2.08-.02-.09-.08-.26-.15-.49-.43-1.33-1.43-4.44-1.04-5.63.12-.38.32-.59.57-.65.55-.11 1.18.58 1.21.62l.01.01v.02c.14 1.31.84 7.85.54 8.15-.03.03-.06.04-.1.04-.02.02-.03.02-.04.01zm-1.6-8.71c-.21.04-.37.23-.48.56-.38 1.15.65 4.35 1.04 5.55.08.23.13.4.15.49.26.8.71 1.94.91 1.99.01 0 .01 0 .02-.01.19-.26-.25-5.05-.57-8.03-.09-.09-.63-.64-1.07-.55z"/><linearGradient id="aj" x1="201.788" x2="220.556" y1="343.692" y2="481.775" gradientUnits="userSpaceOnUse"><stop offset="0" stop-color="#e19000"/><stop offset=".207" stop-color="#e39504"/><stop offset=".462" stop-color="#e9a410"/><stop offset=".741" stop-color="#f3bd23"/><stop offset="1" stop-color="#ffdb3b"/></linearGradient><path fill="url(#aj)" d="M236.34 416.38c-1.39-4.93-1.44-11.05-4.15-13.2-.92-8.14-1.92-23.12.7-26.53 4.17-5.43 4.55-13.14 4.3-17.44 0 0 11.54 20.86 12.26 22.43 2.44 5.33-2.27 7.53-5.57 10.54l-7.53 6.24 4.09 7.63 15.7-10.97c7.31-6.67 7.33-11.79 1.39-23.54-1.81-3.57-12.01-22.54-13.95-24.56-1.94-2.02-13.14-9.77-21.15-12.3-8-2.53-12.55-.08-12.55-.08s-8.22 1.48-15.82 4.49c-4.92 1.95-24.09 41.99-24.78 43.73-2.58 6.45-13.43 30.22-12.55 30.42.46.1 7.3 4.06 6.77 3.66-.21-.16 15.08-28.42 16.53-32.13 2.53-6.46 13.2-25.18 13.2-25.18s2.82 5.15 3.91 13.65c.7 5.42.6 9.6.32 15.98-.24 5.61-1.5 9.57-2.61 12.25 0 0-9.19 14.36-8.73 40.48.4 22.13 2.8 30.25 2.8 30.25s14.93 11.62 39.19 9.72c24.26-1.9 24.81-6.35 30.63-3.95 0 0-6.96-12.51-14.56-25.15-6.79-11.26-6.44-31.51-7.84-36.44z"/><path fill="#84350d" d="M215.21 294.59s-11.18 1.61-9.54 18.12c1.64 16.5 11.5 15.19 12.16 15.18.66-.01 9.9.34 10.7-19.79-.01-.01.37-14.9-13.32-13.51z"/><path fill="#84350d" d="M210.24 324.96s.69 8.58-.96 11.16c-1.65 2.57 1.41 6.06 7.73 4.87 6.32-1.2 5.95-4.78 5.95-4.78s-1.77-5.3-1.25-9.54c.52-4.24-11.47-1.71-11.47-1.71z"/><path d="M216.49 300.57s-5.22 5.49-7.65 8.27c-2.43 2.78-2.7 8.15-2.7 8.15s-4.09-4.99-2.38-10.8c1.71-5.81 5.75-17.12 15.99-13.65 10.24 3.48 10.62 18.77 9.42 26.35-.01 0-4.61-16.74-12.68-18.32z"/><path fill="#84350d" d="M206.32 335.36s7.75 19.63 12.46 23.05c0 0 6.19-20.03 5.76-22.96 0 0-9.34-3.66-18.22-.09z"/><path d="M222.7 330.61s13.82 12.3 10.23 19.97c-3.06 6.55-13.91 2.53-12.12-4.33 1.79-6.86 1.89-15.64 1.89-15.64z"/><path fill="#fab46c" d="m236.34 398.42.74 1.38.04-2.02z"/><path fill="#00759f" d="m221.63 366.85 10.99 52.95 34.08-7.96-15.21-49.4z"/><path fill="#23344a" d="M239.54 373.8c.62 0 1.25-.1 1.88-.31 1.79-.58 3-1.6 3.61-3.04 1.28-3.05-.6-6.86-.68-7.02l-.36.18c.02.04 1.88 3.81.67 6.69-.56 1.33-1.69 2.27-3.36 2.81-6.38 2.05-9.88-7.64-9.91-7.74l-.38.13c.01.02.91 2.56 2.62 4.79 1.78 2.32 3.79 3.51 5.91 3.51z"/><path d="m232.62 419.8-1.82-.93-1.12 1.52-8.05-53.54z"/><path fill="#784331" d="M228.85 399.52s-2.26.6-2.98.71c-.72.1.17 1.43 1.05 1.47.88.03 1.93-2.18 1.93-2.18z"/><path fill="#84350d" d="M230.71 410.61s1.05-.05 1.5-.3c0 0 .78-.51 1.36-.84.18-.1.35-.19.46-.24.46-.19 1.53-.46 2.51-1.23.98-.76 4.17-3.8 4.17-3.8l-2.11-3.18-1.63-2.53s-6.86.19-7.86.79c-.1.06-.19.12-.27.19-.79.59-1.14 1.37-1.52 1.73-.14.13-1.43 1.54-1.36 2.11.11.79.5 1.29.99 1.52 0 0 .28 1.53 1.08 2.21 0 0 .21 1.42 1.45 1.98 0 .01.38 1.43 1.23 1.59z"/><linearGradient id="ak" x1="232.141" x2="253.398" y1="358.466" y2="396.471" gradientUnits="userSpaceOnUse"><stop offset="0" stop-color="#e19000"/><stop offset=".207" stop-color="#e39504"/><stop offset=".462" stop-color="#e9a410"/><stop offset=".741" stop-color="#f3bd23"/><stop offset="1" stop-color="#ffdb3b"/></linearGradient><path fill="url(#ak)" d="m236.34 398.42.74 1.37 3.35 6.26 15.7-10.97c7.31-6.67 7.33-11.79 1.39-23.54-1.01-1.99-4.61-8.74-7.95-14.69l-11.25 4.41c2.93 5.3 10.54 19.11 11.12 20.38 2.44 5.33-2.27 7.53-5.57 10.54l-6.76 5.6-.77.64z"/><circle cx="225.77" cy="112.45" r="3.12" fill="#fff"/><circle cx="282.32" cy="103.2" r="3.12" fill="#fff"/><circle cx="454.99" cy="203.1" r="3.12" fill="#fff"/><circle cx="540.53" cy="147.16" r="3.12" fill="#fff"/><linearGradient id="al" x1="179.357" x2="303.498" y1="175.181" y2="175.181" gradientUnits="userSpaceOnUse"><stop offset="0" stop-color="#a1baff"/><stop offset=".089" stop-color="#acc2ff"/><stop offset=".499" stop-color="#d9e3ff"/><stop offset=".816" stop-color="#f5f7ff"/><stop offset="1" stop-color="#fff"/></linearGradient><path fill="url(#al)" d="M287.87 171.72c-2.91 0-5.64.8-7.98 2.19-.56-8.13-7.32-14.55-15.59-14.55-1.79 0-3.5.32-5.09.87-2.3-7.45-9.25-12.86-17.45-12.86-.62 0-1.22.04-1.82.1-7.66.48-14.05 5.67-16.27 12.73-1.61-.56-3.32-.88-5.12-.88-8.27 0-15.03 6.42-15.59 14.55a15.554 15.554 0 0 0-7.98-2.19c-8.63 0-15.63 7-15.63 15.63s7 15.63 15.63 15.63c.58 0 1.14-.03 1.7-.09h24.01c.7.08 1.41.14 2.14.14.63 0 1.25-.03 1.87-.09h34.27c.35.02.7.05 1.05.05.36 0 .7-.03 1.05-.05h25.09c.56.06 1.13.09 1.7.09 8.63 0 15.63-7 15.63-15.63.01-8.64-6.99-15.64-15.62-15.64z" opacity=".3"/><linearGradient id="am" x1="421.302" x2="564.808" y1="234.43" y2="234.43" gradientUnits="userSpaceOnUse"><stop offset="0" stop-color="#a1baff"/><stop offset=".089" stop-color="#acc2ff"/><stop offset=".499" stop-color="#d9e3ff"/><stop offset=".816" stop-color="#f5f7ff"/><stop offset="1" stop-color="#fff"/></linearGradient><path fill="url(#am)" d="M443.97 229.38c4.23 0 8.18 1.16 11.57 3.18.81-11.79 10.62-21.1 22.61-21.1 2.92 0 5.71.56 8.28 1.57 3.27-10.93 13.39-18.9 25.38-18.9 14.63 0 26.49 11.86 26.49 26.49 0 .37-.01.75-.03 1.12h.03c14.63 0 26.49 11.86 26.49 26.5 0 14.63-11.86 26.49-26.49 26.49-.91 0-1.82-.05-2.71-.14h-89.16c-.81.09-1.64.14-2.47.14-12.52 0-22.67-10.15-22.67-22.67.01-12.53 10.16-22.68 22.68-22.68z" opacity=".6"/></svg>