<svg xmlns="http://www.w3.org/2000/svg" viewBox="0 0 110 110"><g data-name="25. SEO"><circle cx="51" cy="59" r="50" fill="#e7efff"/><path fill="#323fd4" d="M16,15H86a4,4,0,0,1,4,4v6a0,0,0,0,1,0,0H12a0,0,0,0,1,0,0V19A4,4,0,0,1,16,15Z"/><circle cx="8" cy="4" r="3" fill="#ff4d69"/><circle cx="97" cy="7" r="3" fill="#00c99f"/><circle cx="106" cy="72" r="3" fill="#ffa100"/><circle cx="8" cy="102" r="3" fill="#00c99f"/><path fill="#4e6aff" d="M28,23H89a4,4,0,0,1,4,4v6a0,0,0,0,1,0,0H28a0,0,0,0,1,0,0V23A0,0,0,0,1,28,23Z"/><path fill="#8fa2ff" d="M13,23H28a6,6,0,0,1,6,6v4a0,0,0,0,1,0,0H9a0,0,0,0,1,0,0V27A4,4,0,0,1,13,23Z"/><path fill="#a5bced" d="M93,33V86.12A49.77,49.77,0,0,1,81,99H21A49.77,49.77,0,0,1,9,86.12V33Z"/><circle cx="88" cy="28" r="1" fill="#fff"/><circle cx="82" cy="28" r="1" fill="#fff"/><circle cx="76" cy="28" r="1" fill="#fff"/><circle cx="29" cy="28" r="1" fill="#fff"/><path fill="#fff" d="M26.5 45H33a2 2 0 000-4H26.5a7.5 7.5 0 000 15h1a3.5 3.5 0 010 7H21a2 2 0 000 4h6.5a7.5 7.5 0 000-15h-1a3.5 3.5 0 010-7zM53 45a2 2 0 000-4H43a4 4 0 00-4 4V63a4 4 0 004 4H53a2 2 0 000-4H43V56h7a2 2 0 000-4H43V45zM86.41 67.59l-5.35-5.36a13 13 0 10-3 2.67l5.52 5.51a2 2 0 102.82-2.82zM62 54a9 9 0 119 9A9 9 0 0162 54z"/><path fill="#323fd4" d="M71,79H31a3,3,0,0,1,0-6H71a3,3,0,0,1,0,6Z"/><path fill="#4e6aff" d="M107,95V89a1,1,0,0,0-1-1h-1.87a1,1,0,0,1-.94-.69,12.83,12.83,0,0,0-.55-1.33,1,1,0,0,1,.18-1.15l1.32-1.32a1,1,0,0,0,0-1.41L99.9,77.86a1,1,0,0,0-1.41,0l-1.32,1.32a1,1,0,0,1-1.15.18,12.83,12.83,0,0,0-1.33-.55,1,1,0,0,1-.69-.94V76a1,1,0,0,0-1-1H87a1,1,0,0,0-1,1v1.87a1,1,0,0,1-.69.94,12.83,12.83,0,0,0-1.33.55,1,1,0,0,1-1.15-.18l-1.32-1.32a1,1,0,0,0-1.41,0L75.86,82.1a1,1,0,0,0,0,1.41l1.32,1.32A1,1,0,0,1,77.36,86a12.83,12.83,0,0,0-.55,1.33,1,1,0,0,1-.94.69H74a1,1,0,0,0-1,1v6a1,1,0,0,0,1,1h1.87a1,1,0,0,1,.94.69A12.83,12.83,0,0,0,77.36,98a1,1,0,0,1-.18,1.15l-1.32,1.32a1,1,0,0,0,0,1.41l4.24,4.24a1,1,0,0,0,1.41,0l1.32-1.32a1,1,0,0,1,1.15-.18,12.83,12.83,0,0,0,1.33.55,1,1,0,0,1,.69.94V108a1,1,0,0,0,1,1h6a1,1,0,0,0,1-1v-1.87a1,1,0,0,1,.69-.94,12.83,12.83,0,0,0,1.33-.55,1,1,0,0,1,1.15.18l1.32,1.32a1,1,0,0,0,1.41,0l4.24-4.24a1,1,0,0,0,0-1.41l-1.32-1.32a1,1,0,0,1-.18-1.15,12.83,12.83,0,0,0,.55-1.33,1,1,0,0,1,.94-.69H106A1,1,0,0,0,107,95Z"/><circle cx="90" cy="92" r="7" fill="#fff"/><path fill="#8fa2ff" d="M54,77H31a1,1,0,0,1,0-2H54a1,1,0,0,1,0,2Z"/><rect width="6" height="4" x="35" y="83" fill="#7f96d1" rx="1"/><rect width="6" height="4" x="48" y="83" fill="#7f96d1" rx="1"/><rect width="6" height="4" x="61" y="83" fill="#7f96d1" rx="1"/></g></svg>